<svg width="68" height="67" viewBox="0 0 68 67" fill="none" xmlns="http://www.w3.org/2000/svg">
<rect width="68" height="67" fill="#F5F5F5"/>
<g clip-path="url(#clip0_0_1)">
<rect width="1920" height="5288" transform="translate(-926 -1684)" fill="white"/>
<g clip-path="url(#clip1_0_1)">
<path d="M34 -1685V7396" stroke="#FBFBFB" stroke-width="3"/>
</g>
<rect x="-550" y="-1683" width="1168" height="9079" stroke="#FBFBFB" stroke-width="2"/>
<rect x="-66" y="-53" width="200" height="200" fill="white"/>
<g clip-path="url(#clip2_0_1)">
<path d="M33.6599 12.2165C31.8251 12.2165 30.0592 12.7602 28.5531 13.7889C28.1079 14.093 27.9954 14.6977 28.3017 15.1396C28.6082 15.5815 29.2175 15.6931 29.6627 15.3891C30.8409 14.5844 32.2231 14.159 33.6599 14.159C37.5535 14.159 40.7211 17.3027 40.7211 21.167C40.7211 25.0312 37.5535 28.1751 33.6599 28.1751C29.7663 28.1751 26.5987 25.0312 26.5987 21.167C26.5987 20.0271 26.8654 18.9404 27.3913 17.9372C27.6408 17.4613 27.4544 16.8749 26.975 16.6274C26.4954 16.38 25.9048 16.5648 25.6552 17.0407C24.9922 18.3055 24.6416 19.7324 24.6416 21.167C24.6417 26.1024 28.6872 30.1176 33.6599 30.1176C38.6326 30.1176 42.6781 26.1024 42.6781 21.167C42.6781 16.2317 38.6326 12.2165 33.6599 12.2165Z" fill="#BEAD8E"/>
<path d="M67.0848 64.8456L57.4268 41.8145C57.2751 41.4524 56.9187 41.2165 56.5235 41.2165H46.8992C48.7712 38.7031 50.3293 36.1996 51.5462 33.7415C53.7027 29.3853 54.7961 25.1547 54.7961 21.1671C54.7959 9.60023 45.3144 0.189941 33.6599 0.189941C22.0054 0.189941 12.5239 9.60023 12.5239 21.167C12.5239 25.1546 13.6172 29.3853 15.7738 33.7414C16.9905 36.1995 18.5487 38.7031 20.4207 41.2164H10.7964C10.4012 41.2164 10.0448 41.4524 9.89309 41.8144L3.31191 57.5082C3.10424 58.0035 3.34031 58.572 3.83928 58.778C3.96229 58.8288 4.08948 58.8529 4.21484 58.8529C4.59826 58.8529 4.96218 58.6278 5.11856 58.2546L6.05761 56.0152H12.7191L9.26706 64.2475H2.60567L3.60635 61.861C3.81402 61.3658 3.57795 60.7973 3.07899 60.5913C2.57976 60.3849 2.00712 60.6195 1.79957 61.1146L0.235149 64.8456C0.109393 65.1453 0.142893 65.4877 0.324526 65.7576C0.505897 66.0276 0.811323 66.1899 1.13847 66.1899H66.1813C66.5084 66.1899 66.8139 66.0276 66.9954 65.7576C67.1769 65.4877 67.2105 65.1453 67.0848 64.8456ZM14.481 21.167C14.481 10.6712 23.0846 2.1323 33.6599 2.1323C44.2352 2.1323 52.8388 10.6713 52.8388 21.167C52.8388 25.5682 51.2979 32.6014 44.17 41.5639C44.1628 41.5723 44.1564 41.5812 44.1496 41.5899C43.7855 42.0471 43.4074 42.5092 43.0136 42.9765C39.0967 47.6251 35.133 51.0196 33.6598 52.2257C32.1909 51.0237 28.2459 47.6463 24.3317 43.0065C23.9282 42.5282 23.5411 42.0552 23.1685 41.5873C23.1625 41.5798 23.1569 41.5721 23.1506 41.5647C16.0229 32.6028 14.481 25.5699 14.481 21.167ZM11.449 43.1589H18.1107L15.6809 48.953H9.01935L11.449 43.1589ZM17.1712 64.2476L23.2877 49.6621L40.6939 64.2476H17.1712ZM43.7276 64.2476L23.5292 47.3222C23.2907 47.1223 22.9704 47.0474 22.6676 47.1203C22.3645 47.1932 22.1143 47.4052 21.9946 47.691L15.0516 64.2475H11.387L15.0898 55.4171C15.2155 55.1174 15.182 54.7752 15.0004 54.5051C14.819 54.235 14.5135 54.0728 14.1863 54.0728H6.87247L8.20488 50.8952H16.3336C16.7288 50.8952 17.0853 50.6592 17.2369 50.2972L20.2305 43.1588H21.9288C22.2236 43.5236 22.5232 43.8885 22.8309 44.2533C27.8801 50.2384 32.8518 54.081 33.0611 54.2417C33.2375 54.3772 33.4487 54.4448 33.6599 54.4448C33.8711 54.4448 34.0824 54.3771 34.2587 54.2417C34.3737 54.1535 35.9281 52.9515 38.1417 50.8953H49.223C49.7635 50.8953 50.2016 50.4605 50.2016 49.9242C50.2016 49.3878 49.7635 48.953 49.223 48.953H40.1585C41.5153 47.5991 42.9982 46.0205 44.489 44.2534C44.7967 43.8886 45.0965 43.5238 45.3912 43.1589H55.8708L58.3005 48.953H53.1371C52.5967 48.953 52.1586 49.3878 52.1586 49.9242C52.1586 50.4605 52.5966 50.8953 53.1371 50.8953H59.1149L60.4473 54.0729H40.2858C39.8774 54.0729 39.5121 54.3245 39.369 54.7043C39.2263 55.084 39.3359 55.5119 39.6444 55.7775L49.4762 64.2476H43.7276ZM52.4619 64.2476L42.906 56.0154H61.2621L64.7143 64.2476H52.4619Z" fill="#BEAD8E"/>
</g>
</g>
<defs>
<clipPath id="clip0_0_1">
<rect width="1920" height="5288" fill="white" transform="translate(-926 -1684)"/>
</clipPath>
<clipPath id="clip1_0_1">
<rect x="-551" y="-1684" width="1170" height="9081" fill="white"/>
</clipPath>
<clipPath id="clip2_0_1">
<rect width="67" height="66" fill="white" transform="translate(0.159912 0.189941)"/>
</clipPath>
</defs>
</svg>
