<svg width="66" height="67" viewBox="0 0 66 67" fill="none" xmlns="http://www.w3.org/2000/svg">
<path d="M8.73472 38.32C8.55425 38.1407 8.30546 38.0375 8.05151 38.0375C7.79628 38.0375 7.54749 38.1407 7.36702 38.32C7.18784 38.5004 7.08472 38.7492 7.08472 39.0043C7.08472 39.2583 7.18784 39.5084 7.36702 39.6875C7.54749 39.868 7.79628 39.9711 8.05151 39.9711C8.30546 39.9711 8.55425 39.868 8.73472 39.6875C8.91519 39.5084 9.01831 39.2583 9.01831 39.0043C9.01831 38.7491 8.91519 38.5003 8.73472 38.32Z" fill="#BEAD8E"/>
<path d="M64.3887 35.5733H61.7728V33.7193C61.7728 32.8308 61.05 32.108 60.1614 32.108H59.4625V27.1978H63.2337C63.7082 27.1978 64.1363 26.9917 64.4084 26.6323C64.6804 26.2729 64.7626 25.8049 64.6337 25.3483L62.5044 17.8012C62.2915 17.0461 61.5391 16.4766 60.7544 16.4766H56.2369C55.4522 16.4766 54.7 17.0459 54.4869 17.8012L52.3577 25.3484C52.2289 25.805 52.3111 26.2731 52.583 26.6324C52.855 26.9918 53.2833 27.198 53.7578 27.198H57.5288V32.1081H56.83C55.9414 32.1081 55.2187 32.8309 55.2187 33.7194V35.5734H52.9776V33.0266C52.9776 32.138 52.2549 31.4152 51.3663 31.4152H25.2656C24.7317 31.4152 24.2988 31.8481 24.2988 32.382C24.2988 32.916 24.7317 33.3488 25.2656 33.3488H51.0442V40.5015H49.69V39.0897C49.69 37.4903 48.389 36.1893 46.7896 36.1893H36.7646C35.1652 36.1893 33.8642 37.4903 33.8642 39.0897V40.5015H32.5374V39.0897C32.5374 37.4903 31.2363 36.1893 29.637 36.1893H19.6119C18.0126 36.1893 16.7115 37.4903 16.7115 39.0897V40.5015H14.9558V33.3488H20.8827C21.4166 33.3488 21.8495 32.916 21.8495 32.382C21.8495 31.8481 21.4166 31.4152 20.8827 31.4152H14.6336C13.745 31.4152 13.0222 32.138 13.0222 33.0266V35.5734H10.7812V33.7196C10.7812 32.831 10.0584 32.1083 9.16988 32.1083H8.47107V27.1978H12.2421C12.7166 27.1978 13.1447 26.9917 13.4168 26.6323C13.6888 26.2729 13.7711 25.8049 13.6421 25.3483L11.513 17.8012C11.3001 17.0461 10.5476 16.4766 9.76297 16.4766H5.24545C4.4608 16.4766 3.7085 17.0459 3.49542 17.8012L1.36641 25.3483C1.23763 25.8049 1.31974 26.2729 1.59173 26.6323C1.86373 26.9917 2.29195 27.1978 2.76646 27.1978H6.53748V32.1081H5.83881C4.95026 32.1081 4.22748 32.8309 4.22748 33.7194V35.5733H1.61133C0.722777 35.5733 0 36.296 0 37.1846V41.6222V48.8319C0 49.7205 0.722777 50.4432 1.61133 50.4432H8.16234V56.6863C8.16234 57.5748 8.88512 58.2976 9.77367 58.2976H14.2022C15.0908 58.2976 15.8136 57.5748 15.8136 56.6863V53.5747H39.832C40.366 53.5747 40.7988 53.1419 40.7988 52.608C40.7988 52.074 40.366 51.6412 39.832 51.6412H15.4913C14.6028 51.6412 13.88 52.3639 13.88 53.2525V56.364H10.0959V47.8253H55.9042V56.364H52.1201V53.2525C52.1201 52.3639 51.3974 51.6412 50.5088 51.6412H44.4727C43.9387 51.6412 43.5059 52.074 43.5059 52.608C43.5059 53.1419 43.9387 53.5747 44.4727 53.5747H50.1866V56.6863C50.1866 57.5748 50.9093 58.2976 51.7979 58.2976H56.2265C57.1149 58.2976 57.8378 57.5748 57.8378 56.6863V50.4432H64.3887C65.2772 50.4432 66 49.7205 66 48.8319V37.1846C66 36.2962 65.2772 35.5733 64.3887 35.5733ZM54.3906 25.2642L56.3242 18.41H60.6671L62.6009 25.2642H54.3906ZM57.1524 34.0417H59.8392V35.4963H57.1524V34.0417ZM35.7979 39.0897C35.7979 38.5565 36.2317 38.1229 36.7647 38.1229H46.7897C47.3229 38.1229 47.7565 38.5565 47.7565 39.0897V40.5015H35.7979V39.0897ZM19.6119 38.1229H29.637C30.17 38.1229 30.6038 38.5565 30.6038 39.0897V40.5015H18.6451V39.0897C18.6451 38.5565 19.0789 38.1229 19.6119 38.1229ZM3.39913 25.2642L5.33272 18.4102H9.67557L11.6093 25.2642H3.39913ZM6.16094 34.0417H8.84761V35.4963H6.16094V34.0417ZM9.30574 43.4017V45.9614C8.64484 46.1624 8.16222 46.7771 8.16222 47.5029V48.5096H1.93359V42.589H9.42253C9.34699 42.847 9.30574 43.1196 9.30574 43.4017ZM1.93359 40.6554V37.5068H13.0222V40.5013H12.2061C11.8806 40.5013 11.5679 40.556 11.2756 40.6554H1.93359ZM54.7607 45.8917H11.2393V43.4019C11.2393 42.8688 11.6731 42.4351 12.2061 42.4351H53.7939C54.3269 42.4351 54.7607 42.8688 54.7607 43.4019V45.8917ZM64.0664 48.5096H57.8378V47.5029C57.8378 46.7771 57.3553 46.1624 56.6943 45.9614V43.4017C56.6943 43.1196 56.653 42.847 56.5775 42.589H64.0664V48.5096ZM64.0664 40.6554H54.7244C54.4321 40.556 54.1194 40.5013 53.7939 40.5013H52.9779V37.5068H64.0664V40.6554Z" fill="#BEAD8E"/>
<path d="M58.633 38.3211C58.4525 38.1407 58.2037 38.0375 57.9485 38.0375C57.6945 38.0375 57.4457 38.1407 57.2653 38.3211C57.0848 38.5003 56.9817 38.7491 56.9817 39.0043C56.9817 39.2583 57.0848 39.5071 57.2653 39.6875C57.4445 39.868 57.6945 39.9711 57.9485 39.9711C58.2037 39.9711 58.4525 39.868 58.633 39.6875C58.8122 39.5071 58.9153 39.2583 58.9153 39.0043C58.9153 38.7504 58.8122 38.5003 58.633 38.3211Z" fill="#BEAD8E"/>
<path d="M47.3225 13.334C47.8565 13.334 48.2893 12.9011 48.2893 12.3672V9.81366C48.2893 8.92511 47.5665 8.20233 46.678 8.20233H19.322C18.4335 8.20233 17.7107 8.92511 17.7107 9.81366V24.1491C17.7107 25.0376 18.4335 25.7604 19.322 25.7604H46.678C47.5665 25.7604 48.2893 25.0376 48.2893 24.1491V16.75C48.2893 16.216 47.8565 15.7832 47.3225 15.7832C46.7886 15.7832 46.3557 16.216 46.3557 16.75V19.4861L41.7851 11.5697C41.6124 11.2707 41.2932 11.0863 40.9479 11.0863C40.6024 11.0863 40.2833 11.2707 40.1106 11.5697L35.9967 18.6954L33.1275 13.7258C33.1261 13.7234 33.1243 13.7213 33.1229 13.7189C33.041 13.5795 32.9236 13.4585 32.7736 13.372C32.3111 13.1049 31.72 13.2634 31.453 13.7258L25.6212 23.8269H19.6443V10.1359H46.3557V12.3672C46.3557 12.9011 46.7886 13.334 47.3225 13.334ZM40.9479 13.9867L46.3557 23.3533V23.8269H35.2668L40.9479 13.9867ZM32.2902 16.1428L34.8804 20.629L33.034 23.8269H27.8538L32.2902 16.1428Z" fill="#BEAD8E"/>
<path d="M24.8378 11.2404C23.031 11.2403 21.5609 12.7103 21.5609 14.5173C21.5609 16.3242 23.031 17.7941 24.8378 17.7941C26.6447 17.7941 28.1146 16.3242 28.1146 14.5173C28.1146 12.7103 26.6447 11.2404 24.8378 11.2404ZM24.8378 15.8605C24.0971 15.8605 23.4945 15.2579 23.4945 14.5173C23.4945 13.7765 24.0971 13.174 24.8378 13.174C25.5784 13.1739 26.181 13.7765 26.181 14.5173C26.181 15.258 25.5784 15.8605 24.8378 15.8605Z" fill="#BEAD8E"/>
</svg>
